<?xml version="1.0" encoding="UTF-8" standalone="no"?>
<!-- Created with Inkscape (http://www.inkscape.org/) -->

<svg
   version="1.1"
   id="svg2"
   width="288.87445"
   height="100.08155"
   viewBox="0 0 288.87445 100.08155"
   sodipodi:docname="LogoImageNomer.svg"
   inkscape:version="1.2.2 (b0a8486541, 2022-12-01)"
   xmlns:inkscape="http://www.inkscape.org/namespaces/inkscape"
   xmlns:sodipodi="http://sodipodi.sourceforge.net/DTD/sodipodi-0.dtd"
   xmlns="http://www.w3.org/2000/svg"
   xmlns:svg="http://www.w3.org/2000/svg">
  <defs
     id="defs6" />
  <sodipodi:namedview
     id="namedview4"
     pagecolor="#ffffff"
     bordercolor="#666666"
     borderopacity="1.0"
     inkscape:showpageshadow="2"
     inkscape:pageopacity="0.0"
     inkscape:pagecheckerboard="0"
     inkscape:deskcolor="#d1d1d1"
     showgrid="false"
     inkscape:zoom="4.7979321"
     inkscape:cx="231.34967"
     inkscape:cy="51.063666"
     inkscape:window-width="1920"
     inkscape:window-height="1049"
     inkscape:window-x="2560"
     inkscape:window-y="0"
     inkscape:window-maximized="1"
     inkscape:current-layer="g12">
    <inkscape:page
       x="0"
       y="0"
       id="page8"
       width="288.87445"
       height="100.08155" />
  </sodipodi:namedview>
  <g
     id="g10"
     inkscape:groupmode="layer"
     inkscape:label="Page 1"
     transform="scale(1.3333333)">
    <g
       id="g12">
      <text
         xml:space="preserve"
         style="font-variant:normal;font-weight:bold;font-size:29.9999px;font-family:Roboto;-inkscape-font-specification:Roboto-Bold;writing-mode:lr-tb;fill:#2d8bff;fill-opacity:1;fill-rule:nonzero;stroke:none"
         id="text16"
         inkscape:export-filename="LogoImageNomer.png"
         inkscape:export-xdpi="96"
         inkscape:export-ydpi="96"
         x="0.035803355"
         y="56.03669"><tspan
           x="0.035803355 8.7657757 34.715694 50.795643 67.895584 84.095535 105.27547 122.22542 148.17532 164.37527"
           y="56.03669"
           sodipodi:role="line"
           id="tspan14">ImageNomer</tspan></text>
      <path
         d="m 195.777,51.328 c -7.773,-0.266 -19.375,4.543 -21.019,11.625 1.683,5.008 6.078,11.227 21.019,12.109 10.578,-0.746 18.141,-5.609 20.879,-11.835 -1.367,-5.133 -10.508,-11.688 -20.879,-11.899 z m -0.117,2.434 c 0.016,0 0.031,0 0.047,0 2.5,0 4.898,0.992 6.664,2.761 1.77,1.77 2.762,4.165 2.762,6.665 0,5.207 -4.219,9.425 -9.426,9.425 -5.207,0 -9.426,-4.218 -9.426,-9.425 0,-5.188 4.192,-9.399 9.379,-9.426 z"
         style="fill:#2d8bff;fill-opacity:1;fill-rule:nonzero;stroke:none"
         id="path18"
         inkscape:export-filename="LogoImageNomer.png"
         inkscape:export-xdpi="96"
         inkscape:export-ydpi="96" />
    </g>
  </g>
</svg>
